<mxfile host="app.diagrams.net" modified="2021-06-03T01:34:16.000Z" agent="5.0 (Windows NT 10.0; Win64; x64) AppleWebKit/537.36 (KHTML, like Gecko) Chrome/91.0.4472.77 Safari/537.36 Edg/91.0.864.37" etag="DkQEqKT7h-3OPBGtJ19O" version="14.7.3" type="github">
  <diagram id="zXKGvjxwWDsgIuf2yp8T" name="Page-1">
    <mxGraphModel dx="865" dy="483" grid="1" gridSize="10" guides="1" tooltips="1" connect="1" arrows="1" fold="1" page="1" pageScale="1" pageWidth="827" pageHeight="1169" math="0" shadow="0">
      <root>
        <mxCell id="0" />
        <mxCell id="1" parent="0" />
        <mxCell id="6X-8uSroK91dNYrg78xS-1" value="&lt;br&gt;&lt;br&gt;app_server&lt;br&gt;待回调的接口&lt;br&gt;&lt;span style=&quot;color: rgb(27 , 27 , 27) ; font-family: &amp;#34;consolas&amp;#34; , &amp;#34;lucida console&amp;#34; , &amp;#34;courier new&amp;#34; , monospace&quot;&gt;http://172.16.236.45:8443/oauth/callback/mygitlab?code=1df1dcc65972caefd1fd1ba13cb1cb75046446ec81dcbd5fbf541929c48072ba&amp;amp;state=b1ad8df0495b9e6cc76850adbd7d301a&lt;/span&gt;&lt;br&gt;&lt;br&gt;auth_server需要实现的接口&lt;br&gt;1.授权接口&lt;br&gt;&lt;span style=&quot;color: rgb(27 , 27 , 27) ; font-family: &amp;#34;consolas&amp;#34; , &amp;#34;lucida console&amp;#34; , &amp;#34;courier new&amp;#34; , monospace&quot;&gt;http://luozuanshi.gitlab.top:9999/oauth/authorize?response_type=code&amp;amp;client_id=66425f06924f2a351bdb64deed5db7e2bf132bc3fe2c3fd4d1bb8f5a791fe278&amp;amp;redirect_uri=http://172.16.236.45:8443/oauth/callback/mygitlab&amp;amp;state=b1ad8df0495b9e6cc76850adbd7d301a&amp;amp;scope=read_user+openid&lt;br&gt;&lt;/span&gt;&lt;br&gt;&lt;br&gt;&lt;img src=&quot;data:image/png;base64,iVBORw0KGgoAAAANSUhEUgAAArsAAABhCAYAAADWWWniAAAgAElEQVR4Ae2dzatuSXXG+/+4IDhR/4FoJk6Sf8CBo0ScKIIgOkgwekViO1BBEIO2jk1IIiZtiy1CPjSIA01HIw6StI2idtLRSGu3X1yltXf4HXmap9etXXu/3/ut82zYXbWr1lq11qqn1n7O2+8954H/fuqpKXdyEAwEA8FAMBAMBAPBQDAwIgYe+MH//WjKnRwEA8FAMBAMBAPBQDAQDIyIgQee/skz0zXd33/yyenb3/527uTgaBgAU9d0BuLrddWs7Ff2KxgIBoKBy2LggR8/8+x0Lfd//8//TE8++eT0i1/8YnruuedyJwcHYwAsgSmwdS3nIH5eT83KXmWvgoFgIBi4PAYeePZnP5+u4f7Js89O3/3ud6d79+5Nzz//fO7k4GgYAFNgC4xdw1mIj9dRs7JP2adgIBgIBraBgQd++vNfTNdw//gnz0zf+973plzJwCkyALbA2DWchfh4HTUr+5R9CgaCgWBgGxgI2T0Fc4rNq8tAyO42ClJeDNmHYCAYCAaCgWNjIGT36mhZHD5FBkJ2U1yPXVxjL5gKBoKBYGAbGAjZPQVzis2ry0DI7jYKUl4M2YdgIBgIBoKBY2PgbGT3P/7rvw76PmS+s3t1/PGqHA7ZTXE9dnGNvWAqGAgGgoFtYOAoZPdfH/u36aMPfWx63/vfP33iL/9q+ucv/suLiC1E98/f8+CLxnYFQMjuVXHHq3M2ZHcbBWnXuhD57FswEAwEA8HAEgYOIrsPP/LI9MpXvWq6c+fOfTfjEGCI7qte9fshu1dH/26XwyG7pymWn/3so9N73vOe6e1vf/vijRzyS0Ur86fZq+Q1eQ0GgoFRMbA32X3HO995H8Ftkd6Xvexl00tf+tKQ3dvFHa8u2tHI7qf+7u8n7l7hWiPT01+ag7g++OCD09e//vXpO9/5zuKNHPK7EN6//pu/nf7sHcu16I/++I9flItWrZob++73n3xB9x/+8Z9W1T3Zwr+5PH3t379xY2tuvo5jk/UZX+OH9Fv5+fBf/EU3b8xLf85P8oJPnh/ppA1pCgaCgS1hYC+y+5GPPvRCwX/5y18+8cxXGQjsPx9/fHrf+z8wQXJV8F/ykpechey+6U1vmh599NH7iNYnPvGJ6e7du/eNM/DEE09MzPuFDY1532XUZ816Y/MrX/nKfePI5dpmBkYiu5BYziD3HOFdI3NooeKTWgjsLhfy6K1dGxILGRPxaumJEPsctQk9H2v1T0nmIJROKlvra0yEEn+WdCo5heyKJGOPfFQbyqPW8xb9Fmlv5dX15vryT++HtXsxZ681Puczsvh9yn1t+ZOxEL9g4LIY2JnsQmZVpH7vla+8Ibd1E/nqQv16w5/86Z8uvliqHX9e+s4u5LSSTp7nSCdzkNKnn376hgjT1wUxRo9rDdnFhi50RXadYCMTsqssba8diexybnpktjfnZ+7QPl9d4BPdXS7k0VuzNgQOUiPZOQLTIpWqYWtaEU2ts08rgrVmPZcRKWVsrR8ik/KTHLlN+rKLzNwPCrJTdUV867ie0dPatZUvPs767o/P7dvvkd19bUbvsmQl+U/+D8HAzmTXv77wz1/44n1FDaL76le/+r7iesp/oAYh/dCHPnTzThXB1QsWEsy8SK3GvYXYipj2yDG2ubGnS2Peiuz6mPrSS7utDIxGdikKLVLbGjukgPR0T012IVdOrPh00j/BlG+t8aor2doit5ZkVt3eM2Ss5euczi5+iKTKVl0Lsgq5lBy2603MmpcdWpFI9FsEFTu+J67LuuyFj52qLz9PZT92Q7yCgevCwM5k9w/+8A9vCuNrXvOa+4oWRLd3HwKO3ie7IqqiTzxDbrlFgpnrEV7kIKno6lNddPLJrrI6djsi2eW8VXK79PWGQ85o1T0l2YVoVWIlEud+tAgb81XXdbyPnMguBIrnXW/03KZ879mppND9mNMX+awxt/xGtsrhI7FqrdY8tmTPY1Jfunr2ljls+thcH1m/q5x8k0zNMc/6BBpd8onsHImvOa3r5fm6iE32K/tVMbAz2VVx4RPeauyUzz2y6zQM0gpZpdWnqXOtf3XBbXh/iey6rPp8mszNhT7r59p2BkYlu5xJJ7y97/Ee+/yeiuzqE0IIjJMnESCPAxIjEujjqmNrWpFd16/9uXVacqzZ+1SXOJbIrhM51nCi38pD9YNnl8N/bKwhu3Vtt01srXz5Wi5f+1rf88N62JUsc3UdkXDJONklNs9n9YV5J8us5/KymTYEKhi4XgycnOz61x4OAUqP7OoTWeiUyG6lVhDOSm55FhGWnp6XWq25JNear35UX/N8/gyE7B6/iJ2K7IqYVLJLfWFMZEzEqUW+IEuQnqWaVEmV5CFITsh45mYeu/JR8rTyjRa7vRsZ13U/WEcxSoZnXx955hibW0dzksOG50yksOprbXz0HLqu/FKLXI1Jc97ik+LwcXSVb+9Lpq4tsouvyoVkFRfP0tOcWnQ8No2nPX6dSE6T03NgYGey2/saQ8thvu5A4UCvNb92bFey60S2RTj9e7f0Ibt+6bu+jLXmXVZ9dFiLT5bVD7FVdrbdjkp2/VPd2l979vaVOxXZlT+VbDHun/oxL2ImnVYrYiR99FpyGnOypDEnaRCoSshYo0fWZIe2RQypodhlnrVqXDyLJLb8Q4/1PTaXk38if7Q+L/88V4zhl9aVrmS9bdnyefXlh57VesyeC83TEhvr0McOz8i6DH33RX3k6i1bVT/PIWfBwPVhYGey65/Utv6BmoOAeRWQQ7/2sC/ZFcWChIp4OpFlvkVm9Unv3HyLTPt3fbUudirZlh+SSXv5DIxIdlvktjXmZ/aY/UuQXfyH6FB3aFvxQJxEPCUv8lgJIePVDs+ujw1sivTxLBLVWr8S4SqDrpNS5onHya7qqrdav66teGtskhNJJVb1aTXv/hG7cqVxxSNdjXurOVofr/1WbpEhBq3ruXB9/MBnxrDDM7Iak6zHRb/mWnJpr4/QZM+yZ3MY2Jns+q8e49eL8dwyzrj/+rE5uZZua+ycZJd/yAZBpeWqZNjnKpHlGTLbIsPM5dpmBkYjuz1S25trnb19xy5NdiE6Ld9FvESenMA5IaRfiZXPu23ImMimxnnGtp7VioRhe+6uBMz9cOInm946mWMcHxhTPFqTPEhWvvo6mnPbnisfp6+81nE9o9vKh+Zp8YPbx+iTD/yvfclpbVrG5KdiJhbJelxVTzJpQ5qCgbEwsDPZBQD+RyVe8YpX3PxZYP1RCVr+TDDjKqrIHwqctWS3kk1RK43z3PtkVyQVgqtL/+CNZxFhzWFXpJgxfpuDyK7/loiqJ/2028jASGR3DZldI3Pomb0E2aXmiChCeJy81Xg0J2LEvMhsiwS1xmRzjqSxhkiaZJ24acxbyJhi0Lh81XOvdTKHHLryw+1q3G15jNUOcp4r16Pf8rvKsCY2fJw1RXC1vueMH0rcbxFYZGUHm7LBmPuJPutKvsaFrNtH321pjbRjkZ/s5+3az73ILiDxrzOoaLbaQ7++IED2yK7oEqRUBFOkVXM9sgv55esG0qlfRxBRxQY38rpCdpWJ625HIrucGcgst85Pq10j09JbO3bqv6AGQYG44I8IjT6tlY9z45qndWIksuvz6kOAqn3NVbKlcewxp2da/HYy53P0Wz44Wavy9dlJp9YXwaukrur6s3RqXZ/LAeM1VrenPnmsNjVHK8IrmZbPxKV52kpOfU+xqTXRU1y+JvJuDzmfT/92EaPs93j7vTfZBQwPP/LIxF9R8yKhPuPMHws0S2RXhBTCyiXiKgomkirCKjmNi/BKfm0re95iW+v7OP1c28zAaGT3WOfuEDuf/eyj04MPPnjzJ4P5y2hLN38qGHn01qwrskvbIkRug7oEoRHpUZ1a21YyhW3WdH19cujrtvroVTJVyVsllKzTs4+8+yJ9/IbcyY+18UsPm9KldRJZfUbW13K99McjD9nT7Ok1YeAgsqtA+eoCX1Xgd3jS6isNmj9Gu0R2IZIisC061ZpH3n8LA5/oVnI696y1mM/XGFoZv66xkN3TFG6IK5/w8pWGpRu5tUT3GDUlNk6z58lr8hoMBANbw8BRyO45gloiu9dFreLt1jIQspvifI46ljWCs2AgGAgGzo+BkN2tsa74c5EMhOyev/ik4CfnwUAwEAwEA+fAQMjuRahVFt1aBkJ2U3DPUXCzRnAWDAQDwcD5MRCyuzXWFX8ukoGQ3fMXnxT85DwYCAaCgWDgHBgI2b0ItcqiW8tAyG4K7jkKbtYIzoKBYCAYOD8GrobsPvPTn04Qkl/96ldb40nx58ozAKbAFhhLETp/EUrOk/NgIBgIBoKBU2LgasguSfjfH/xgeuqpp0J4r5xcbsl9iC6YAlunPGixnUIeDAQDwUAwEAxcBgNXRXYBCaSET+FyJwfHwkCI7mWKT4p+8h4MBAPBQDBwDgxcHdklKfzvZn7vbu7k4FAM5KsLKbTnKLRZIzgLBoKBYOByGLhKshvAXA4wyX1yHwwEA8FAMBAMBAPXhIGQ3Z8HsNcE2PgavAYDwUAwEAwEA8HALhgI2Q3ZzT/MCgaCgWAgGAgGgoFgYFgMPPDY17855U4OgoFgIBgIBoKBYCAYCAZGxMADX/va16bcyUEwEAwEA8FAMBAMBAPBwIgYuCG79+7dm3InB6Nh4FOf+lRwnbMdDNxiDIxYA0aLKfFsn3uMsEchu7f4RTAaua3xjHBAa0x53v6LIXu0nT0asQaMFlPi2c55matdI+xRyG7I7rCffI1wQOeKT8a3/4LIHl1+j0asAaPFlHguf06WatUIexSyG7IbshsMDIuBpSKe+e2/aA/ZoxFe0jX+0WJKPNs/gyPsUchuiM6wRGeEA1pfdHne/oshe7SdPRqxBowWU+LZznmZq10j7FHIbshuyG4wMCwG5op3xrf/gj3GHo3wkq55GC2mxLP9szjCHu1Edl/3utdNd+/e3enF+IUvfGG6c+fOzf3UU09N3DzT1kOc5+2D/pr2aM0B/chHPjJx17iC0WCxYiLP14eJNTXg2vZ1tJgSz70JbgVX2geLcLLWO2wfW3M6I+zRarLLZoi0zrXf/OY3bzbrk5/85Auy6HkCmTv1xvh66V/fC+pYe7bmgIJlx+scthnf9Qe9Y8URO7cXw9n7w/a+VwP8gxg/9/uSjnPt1a4xHfq+JTd6t58ixl3jwZ9j+KG6f+wP3nrxzPl9zWSX81J5nuLknUme9XzJdhXZBVy9AkCgrQPVSoIXldrvrXHJJGXtw144l8rfUtGhgM8dUrB57CJ4qTxk3evEb/bt8H3r1YDW+0n/53HLP9juGhO1rPV+buELuSqL/iXJ7lyNbvm/hbHe/sz5R4z78p9Lf7LbOkeKs5LdlmxrTPrHbLtkFyeWgN47SDUIDlGL5XOQsBNycXhxPyY4rt3WUtHhIILRVpzBY7DYwkXGrgsXvRpQ30++t5CP1rvKZS7V3zUmvV/X+Buyezi+e/sztwe7kF32yH8Yc7ILZn1ubr1dx3sx9c4Rvvg5asm2xnb1b438LNnFQf+Jir4/4yCEgLYuRIDM1dv1nfgy7gmp9vJ8+AG8jTnsHVB9giP8gr+KV38+RQG5jXuSmHOWz4mBXg3ovWSpB/XM1/faKT/t7OVo15gq2eV9q9rm72SNqdU7mWfZ0NwxY981HuUG332PVNPlm/z2eBUTNhST7B2rnYtH6ymHa1vfI3xUXPKXHMCneFYO9F6TzKHtXEzY7Z0jfFPO6/nhuTWGTekRl/LE2CFxzJLdllFfuG5AS54g5+Sc7LZ0M5aX4qEY6B1QHTIVBbCqglHXZe7Qg1Zt5jn4DgZOj4FeDei9pEVMtEe8x7w+aJ5WMudqd43J46Svmoe/1DWPi74/IyOyofioh4zp+dB213h8PSd+xIJvmpff+j/GlQhqDyV/rLYXT2uN6ldLRmO+lxqre3js/WGdXkwtn9w335OWbGuMmNg/5mSrnkGNr213IrsVPEuL4Bw6TnjpEwAHiiQQFPeSrcyf/sUwWo7nDihFDhwKi8StAiGM1zYYDf5GOx+3IZ65GkDsrZescuJEaE6uRQylf8p2l5iWiBSxeW1rxUQtRE4xySatxg5pl+Lp1WJxCNV096P6zZzk6fseu96h/V48Ldvyw/ehJceYv7Mkg17rBxRilcyhbS8msFH3yJ/dj9ZZao21YlKe9o1lkeziqDve6+OMHFEC2BwdII0hwxi2dXBcVzbShmAcgoG5AyrceeFgrBYMrc3cmkIk+bTBbTCwDQzM1QD2p/WS1b7xPqI+8DxXG9C/RF1Yiqm+o+u7Ve9hySlOYtW7WnmgRa7aaI25zi79pXjcv5Zd5lv+tMZ8z4kJmZbNQ8Z68bTsgiEwhi+9HyDcd7fTIoZr7LmNpX4vpjm/sKnYZL8l2xqreuiLK/ZypHVa7SzZZTGST9IAEw61DGisAgsdbAio9D0AkV306UtO9tJu42VxzfvQO6DE5bhWcQDHrRvsXnMu4nvO023EQK8GtF6yyhH1QGeefusHYfQlI71ztPvGhG/46+/amoNrJLvERM2uJKhyEuL3PdsC2XUf5nAmTLXi0Z628Il8a1z2dmn3xRx7Q1xaq+KN8dZY1UNOZFe2dm1nya4bclLg4973jVCh8CB8U9FjE5QEBYG820w/L+hDMNA7oNh1XPcKjfB8iC/RDZaDgfNjoFcD/P3ke6P3Ee8sxufkWsTQ7Zyqv09M8oX3tJNCapuT31ZM/m53O8qPxvZtD4mHvYEYqXUf8JtxH/P4KidxuUP6vXjcrnDmPrIX4kUuiwy++5j6xN+aww45kNwhbS8mfHMM+TqVtLZkW2OtmFpyvtZS/yRkF0fZSHeubiKb45tKH70lhzN//hfGtea8d0CJCUyCUfoqDBSH1h1sBnfXeg5us9+9GuDvJ+VIBEh1QePUCicUkhNxRN6JBfVCNaNFamR3n3bXmHwNfFRs8suJSus9jE4ltq0xX2eX/r7xyH/tgddz1sdHbvlS90zPmmd/tWfSF0fR/mot6bTaXjyS19raC43T4rNjzedafXzeRb5lY2msFxMxOIbcFr4ph4wrbpdpjaFXMcaz54s1ZVs2aLFNPqpPq8kuCy3dWkiB9JKAM3JU8mlDKI6Jgd4BZR0vjmBxrmAw50XwmD7GVjAfDJwOA70awPup9U6b2w/qhcs78ZEt6VIvVDNEyvxFLbl92qWY6kve15CfxKH65/LylXm9n+nXd3trzNfZpb8UD2vVW+TGa7bG5Cs6Hm/1WfLyFVvaM8aQVw5kx/dcerXtxYOscNSzJRnFUtfwZ3z2PPjcsfq9mMiNY8jXxDflUOOKzXNdx6Sncd8LtyPb2kvli3xUn1aTXQLSIq22AgmZVhLceTnWspex070AbktueweUHIBFFTHwu+buFajbktfEmbN5LRhYqgHXEof7OVpMp4qnxUk8j6fqz8Wjd40I2tL6/oNHla3vqlO/l+Ziqn4d61lk91j2sLOK7B5zwdjKi/JcGDj3AT1XXFknZygYWIeBEWvAaDGdKp6tkd1rPrOn2qO5nITs3ltX4OYSmPHblb9zH9Dg63bhK/u9/f0esQaMFtOp4gnZPd75PNUezdXQkN2Q3e5XSeaAc1vHz31Ab2ueE/fxXirJ5XFzOWINGC2mxHNczJ+ihoywR/kaQwj0sAR6hAN6isIVm9t/uWSPjrNHI9aA0WJKPMfB+ilrxgh7FLIbshuyGwwMi4FTvgBiOy/pS2BgBOLheUs8OUeOh1P1Q3ZDdIYlOqMV0VMVgdjd/ssme7TfHo1YA0aLKfHsh+1z1oQR9uiG7BJI7uQgGAgGgoFgIBgIBoKBYGA0DNyQ3SlXMpAMJAPJQDKQDCQDyUAyMGAGQnYH3NSE9LsM8JNprmQgGbi9GRixBowWU+LZ/vkcYY9CdrePs3i4ZwZGOKB7hh61ZCAZmKabr+eNlojR6lri2T5CR9ijkN3t4ywe7pmBEQ7onqFHLRlIBkJ2rwIDo9Xp0eIBRCPEFLJ7FeUgTu6TgREO6D5xRycZSAZ+l4ERa8BoMSWe7Z/WEfYoZHf7OIuHe2ZghAO6Z+hRSwaSgUE+kaobOVpdSzx1h7f3PMIehexuD1fx6EgZGOGAHikVMZMM3MoMjFgDRosp8Wz/aI6wRyG728dZPNwzAyMc0D1Dj1oykAzkk92rwMA+dfr1r3/9dOfOnenpp5+ejfHd73739Pjjj8/OM/HpT3/6xg62lux1DdnkPvGY+ia7l4rpt7/97fTcc88dJSebIbsCXQ+8yADgNRcgB7xbv9bEvfUYtupf74CuwZIwpEJI+/GPf3yncJGXPgV6lwu9pWLNeZB9tX6G6rzP7eJLlcWO1lvjZ9X3Z3xcOtdaz/3XmPz48pe/7GZvXoSao63zLxJuPPTsCxsNtReGfG3vz2GolYfqQw8PLX05s7T+3Lzqk897HpUHn6/x+RnAnyWb8vkY7aE14Bg+HNtGLyZfS9ih3fK1Nh5iUExgChyCu7kzIWwKr45R9StWj5GrXeI5x77ovGkt5UU58Fa5kqzaS8T0ox/9aHrzm988PfbYY3LjoHYzZLdGIVA7+NYQFNnRhuo57e3LQO+ArsESB3+JhPWyyhpOcHtkpGWHIjRXyCWP/TkZxr140cemnynZ2bXFjmzrrO1jVz4t5blVD1o+eC6W5pdi7ukr5iUbdR6brTzN5aHlwy76ypvnxX1amocMgOO5C797e9fK05LNubX2GT+0Buyz5ql1ejH52uxbJXM+v5X+2niIhfPgWBZ+5+Js4U9xg1vVMI0do10bzzHWWrKh/JC33kWe/F1VZc8dE5/mfvjDH54+9rGPTb/5zW+qO3s9h+zulbYoXUMGegd0Ddk99GUxV5gpQGuuqt/SQWatPfQpaIcWePRrYeTF0SNFLd/lz5q9UNFWrC0dXnh66S3Nz/mj8SX93ktUNmqLTflX58hnXXOXPLf0WWPphX7ofC8m1p+L4VAM1vzNPR9aA+bsXnK8F5P7BSacGPrclvpL8YAx6tzc2SEW5pZkasxL2K/ya5+X4llr5xhy5EX569lbysW5Y/rqV786veUtb5meffbZnts7zZ2V7AJG3WwAh1FFz18e2hzJ0nIxzqbo0gtQcn4YZK/KrD38rCO7+OmXDpbmfa76rpczMpKnla/y021oTPIeM3I8KxeS4TnXizPQO6DKH/hTDmn9Qkb75OPer/rCl/bQZen7C6his66FP9hBRz7WfWbcMVbXq89+5jTnWK/2WnPEXM+EMCmbtO438/UiXuLBXp2vuVGeFWtrPbezNI8vdQ3P7ZK+9rfa0P7XWHmuuZXMXB7W5nlOX75pndouzSNPHvBj7uqdEfwSbml5XmNzbq19xtfUANnFx7p/9bxo3xUX+dGlfGpOreKW3KFtLybZxs96RjW3tXYuHuWa/M3lVjmmRR480vezTLzsk8v2+ofmZy6eQ+3uqq96qNzN6a/ByjljguC+9a1vPdrXFxT32cguB88PPX0Ap0IqYMsxbRCtLgDsxUWHQPMte37gWQsZtyldb7HrvvrBYdx9YE5rYF997PGstRhXrMzJZo275SPr+Zr0iQNdLtnQWjeD+U/3F2GTf3Lo+0zf949nZHS7LOnVXinVvg/MuS3JsHfCAfZ8z1hHc8hrXcnQuoyeJUcrWa3nreRdpmKL9TXfm3M8K25fi3lhnHFsef48P/SZ1yU/PRfY8/h8fenhB+NcS/NaAx1dntslfcWs9bCBv+6j7NKSC49Rc708ION+aE3p0vb0mWNNYR3fuHUtzSPH+tKjRcevNWfEc7TGpts/tN97Sdc9IT7Hg3xVzLTI6HwwT35b+8qc5A+Noer3YpIs++LnT+NbbNfEs6vfjvm5PLBv2ttd7ffkTxFPb73WnOobrfotOcZUI+bmGT9nTJ///OenD3zgA0f7h2mK6yxkF0DVgocDXjxrIdcG0eqqxUnjav2Ay57rI7dmY+dk5JPWU6si2fNPMtJRKz/17C83jWldxYJ/ThyQa+lJ/7a2vQPKXs1hsr7wlD/20POOfpUVduYwz/xcgXX8sqafD/nQwxhz6Agn0lHLHDK6KvY0Ttubkxz2dPuaxEecfrm9iucqTx48z+6P1mnhnTW0p0vzNdes4bld0lc88kexav/1rBZ76Pi1lAfJKse0vt6SPnlFx3NJXzlamtf6ahUzenNXXQ9ZrdfSWWOzpbd2bKkGOE7xve6R48D7Wr/ugcZpW/Z8ft9+LybZZG3Hisa32K6JZ1+/584j9pjrYXnfNU8Zz1qfHKvCaEu3N+fy54qJT3Xf9ra3Td/61rd8+aP0z0J2eYl4wZXnviEqeprTJviB9ZeR5LDLwdatdao9l5eMxmorXWz65eNaTy1zXPVZ+vjOnBdX5mRTcsh4zBonV1qjdYBbY9K9rW3vgLawRJ4ckzVvrb3SfnuL7bmXfC2wc/hlbWxqz+XLnF3Nt3Cgs4RffvE8dxZ6c8qD4xRf9eJA1/PhfdavOUYPv3XVHDGuGLRmtYEMfjHOtTTPGu6X+vJjSV85uFnM/kM+a07dLxO9z8eaB62hmNHFT+W5+lj1eVY+tK7ncWleOt6yt8qRj6svn/XcWkNzapdsSm6fdpcaQG7x3y/PMfO+F5JDpuqRo4oDyR/a9mLCdu/sHrr2KfR78cydU53XuVZ+ok8+uIT9OZ0ermVvTduLZ43+oTK1Binult21WDlFTM8888z0uc99bvrlL3/5gmt8qvvBD37waP8o7QXD0zRdNdkFtF5QfJNr0VXQyAj8GptrkWMNHQJs1pdHS1dro1svHV75IFnJobNUUP0AS681prnb2vYOKPnXvnp+Wi8uzdeiMbdXyNd9lQ23j/4cfpFnHjt+VULjc/QrvpGf85Mc+PpuqzdH3rDrF37qbPR05Q8+tW5y3LKv3OtstIIz06AAAAZ3SURBVPDuuVkzX2PweJb05/a35h+brbF986A8r9FHRnvisQlXS/Ouoz465Gbu0j5pfm4NzdMu2XTZXfu71ADlxdcgf/jHxbzwV2X8nCKP7KmuXkys6TXmVD4c0+5SPL6W8NXaB5dT389xT3fufSA7u7S7xLOL3TWyihH8tW5hWbbWYuUUMUFy7969Oz300EM3X1ng+V3vetdJPtUl3rOQXRJci642RcmvLw/N0+pyQKroa44WYOvlLXuuj4wXL9ed68sP7Klfbc7pshY+18uLofyUTMu/uq4fYOm1xjR3W9veAWVf5jA5t78Vc6298lxTbNDRpX3kudpizPHLM/o6H7IBvoVxjXmLDelUbLkcfeRqDiTTm/M1JO/x9HQl7y3y2NTVihEZ8qG98VrgejpvS/OtNWSHdklfuZU/0m1hgjHkl66ah6U8V3tV3/EmWY3Rqq85Wo3Rti7y0sOf4wB9fJrDmOwv2ZTcPu1SDXDctfbOz2BrvpWveu738bun04up5r9nZytzvXiqj+yBYxPscM9d7K/mW3slPWQcCxrfp90lnn3s76qjuKve3HiV4/lUMfG7dN/whjdMn/nMZ6ZvfOMb03vf+97p17/+dcuFg8fOQnbxkgIg0PEMsLyQ6OXhEdWi4YCUvICvl6EKseYdwOgvFV7Wlw36AoTWwV61IXnsSw5dL46SYdxfAPKTcS7F4XZY0/V59lyi1xr7ncXb+9/eASV/LUzWPHv2qrxs+F65Pn32RZfvkfZdutp312c9bl0tHfR0yR89Y6viRHNqwaiviT35NDcnX2WDFllfC7/dLjZ93nWx53lSnLS6lAv5RsuYZKQj+aV5yXv+6MveWn33m/jIg1+y42Nz/ZoHnn3/0at5dltVnzn2wH3k2felN4/vLqucKUfYd9s846/vMz55TpZsKl9aA1ueA2y5Tx5/q79UA9x/7LqvPLM2MXBpP/BRF/ruT32WHK3vXc1lXdv1ar8XE3Y8/1V3i8+9eNxfYvPcM8cz8fo+ug7jmheWqg3kJeO6+/bXxrOv/V31iNfPkPRb9UJztT1lTE888cT0xje+8eYPSHzpS1+qSx/t+WxkVwkn6dwcdg6/ipoOv0cGuCXPeAWkz9PXjazsqUC5HV+j1eeASF6+ulydVzHUYZIuz7o0plbj8lPPtNVn4vJLB3hpzOdvY793QIUlxxB59Wtun12m7nlrr7Tndc7Xpq9b9tGrWNB5QUbYkX1/UTNf/ZdcjRM9zVUbc3PVL8e6+y+7tK2XDLLYqj5V+6ofbqPG73Ot/CzN19h79jVX/VTsapmvdjVX2zV5aOVZdlr6zDkOap6X5n3/WnvotpnHB79a8fdsap/JL5fOl2ySy3qONNdq19QA13O8y3ePib77777UOckp59jW/gk/ihM7a3HSi4k1K849vi32e/HI37ncKqfksZU/4ZP8Clval9pqn7Tmvu2aePa1vY+e4q665MTxW+f9+ZQxPf/889PDDz88vfa1r51++MMf+rJH7Z+N7La8vsaD2YojY9vMwCkP6DYjjlfJQDLgGRixBszFBCE8FmHzHJ66PxeP1uUHhDWkDDn9MIGuSJ7If32WfVr0jpW7pXh83WvpjxDT0cguYKk/KfE8ByDG5+bOAQDWbvnrh+UcfmSN02VghAN6uuzEcjIwfgZGrAFzMfHJJoT32q65eK4tDvk7WjzENUJMRyO72ui5thLLNT+pzdnKeDKwJgMjHNA1cUYmGUgG2hkYsQaMFlPiaWN3S6Mj7NHZyO6WNi6+3I4MjHBAb8dOJcpk4DQZGLEGjBZT4jkN9o9pdYQ9Ctk9JiJia1MZGOGAbiqhcSYZuLIMjFgDRosp8Wz/UI2wRyG728dZPNwzAyMc0D1Dj1oykAwM8l3DupGj1bXEU3d4e88j7FHI7vZwFY+OlIERDuiRUhEzycCtzMCINWC0mBLP9o/mCHt0Q3Z/du+3U+7kYDQMcEBHiynx5JwGA+sxMGINGC2mxLMez5c6+yPsUchuiP6whHCEA3qp4pZ1t/8Cyh4t79GINWC0mBLPMo4vfdZH2KOQ3ZDdkN1gYFgMXPolkfUv+yIf4SVdMTRaTInnsmek4qv1PMIeheyG6AxLdEY4oK3Ck7HtvxyyR9vYoxFrwGgxJZ5tnJVezRphj0J2Q3ZDdoOBYTHQK+CZ2/5L9tA9GuElXXMwWkyJZ/vncIQ9+n9k+grTIWFTnQAAAABJRU5ErkJggg==&quot; alt=&quot;&quot;&gt;&lt;img src=&quot;data:image/png;base64,iVBORw0KGgoAAAANSUhEUgAAArsAAABhCAYAAADWWWniAAAgAElEQVR4Ae2dzatuSXXG+/+4IDhR/4FoJk6Sf8CBo0ScKIIgOkgwekViO1BBEIO2jk1IIiZtiy1CPjSIA01HIw6StI2idtLRSGu3X1yltXf4HXmap9etXXu/3/ut82zYXbWr1lq11qqn1n7O2+8954H/fuqpKXdyEAwEA8FAMBAMBAPBQDAwIgYe+MH//WjKnRwEA8FAMBAMBAPBQDAQDIyIgQee/skz0zXd33/yyenb3/527uTgaBgAU9d0BuLrddWs7Ff2KxgIBoKBy2LggR8/8+x0Lfd//8//TE8++eT0i1/8YnruuedyJwcHYwAsgSmwdS3nIH5eT83KXmWvgoFgIBi4PAYeePZnP5+u4f7Js89O3/3ud6d79+5Nzz//fO7k4GgYAFNgC4xdw1mIj9dRs7JP2adgIBgIBraBgQd++vNfTNdw//gnz0zf+973plzJwCkyALbA2DWchfh4HTUr+5R9CgaCgWBgGxgI2T0Fc4rNq8tAyO42ClJeDNmHYCAYCAaCgWNjIGT36mhZHD5FBkJ2U1yPXVxjL5gKBoKBYGAbGAjZPQVzis2ry0DI7jYKUl4M2YdgIBgIBoKBY2PgbGT3P/7rvw76PmS+s3t1/PGqHA7ZTXE9dnGNvWAqGAgGgoFtYOAoZPdfH/u36aMPfWx63/vfP33iL/9q+ucv/suLiC1E98/f8+CLxnYFQMjuVXHHq3M2ZHcbBWnXuhD57FswEAwEA8HAEgYOIrsPP/LI9MpXvWq6c+fOfTfjEGCI7qte9fshu1dH/26XwyG7pymWn/3so9N73vOe6e1vf/vijRzyS0Ur86fZq+Q1eQ0GgoFRMbA32X3HO995H8Ftkd6Xvexl00tf+tKQ3dvFHa8u2tHI7qf+7u8n7l7hWiPT01+ag7g++OCD09e//vXpO9/5zuKNHPK7EN6//pu/nf7sHcu16I/++I9flItWrZob++73n3xB9x/+8Z9W1T3Zwr+5PH3t379xY2tuvo5jk/UZX+OH9Fv5+fBf/EU3b8xLf85P8oJPnh/ppA1pCgaCgS1hYC+y+5GPPvRCwX/5y18+8cxXGQjsPx9/fHrf+z8wQXJV8F/ykpechey+6U1vmh599NH7iNYnPvGJ6e7du/eNM/DEE09MzPuFDY1532XUZ816Y/MrX/nKfePI5dpmBkYiu5BYziD3HOFdI3NooeKTWgjsLhfy6K1dGxILGRPxaumJEPsctQk9H2v1T0nmIJROKlvra0yEEn+WdCo5heyKJGOPfFQbyqPW8xb9Fmlv5dX15vryT++HtXsxZ681Puczsvh9yn1t+ZOxEL9g4LIY2JnsQmZVpH7vla+8Ibd1E/nqQv16w5/86Z8uvliqHX9e+s4u5LSSTp7nSCdzkNKnn376hgjT1wUxRo9rDdnFhi50RXadYCMTsqssba8diexybnpktjfnZ+7QPl9d4BPdXS7k0VuzNgQOUiPZOQLTIpWqYWtaEU2ts08rgrVmPZcRKWVsrR8ik/KTHLlN+rKLzNwPCrJTdUV867ie0dPatZUvPs767o/P7dvvkd19bUbvsmQl+U/+D8HAzmTXv77wz1/44n1FDaL76le/+r7iesp/oAYh/dCHPnTzThXB1QsWEsy8SK3GvYXYipj2yDG2ubGnS2Peiuz6mPrSS7utDIxGdikKLVLbGjukgPR0T012IVdOrPh00j/BlG+t8aor2doit5ZkVt3eM2Ss5euczi5+iKTKVl0Lsgq5lBy2603MmpcdWpFI9FsEFTu+J67LuuyFj52qLz9PZT92Q7yCgevCwM5k9w/+8A9vCuNrXvOa+4oWRLd3HwKO3ie7IqqiTzxDbrlFgpnrEV7kIKno6lNddPLJrrI6djsi2eW8VXK79PWGQ85o1T0l2YVoVWIlEud+tAgb81XXdbyPnMguBIrnXW/03KZ879mppND9mNMX+awxt/xGtsrhI7FqrdY8tmTPY1Jfunr2ljls+thcH1m/q5x8k0zNMc/6BBpd8onsHImvOa3r5fm6iE32K/tVMbAz2VVx4RPeauyUzz2y6zQM0gpZpdWnqXOtf3XBbXh/iey6rPp8mszNhT7r59p2BkYlu5xJJ7y97/Ee+/yeiuzqE0IIjJMnESCPAxIjEujjqmNrWpFd16/9uXVacqzZ+1SXOJbIrhM51nCi38pD9YNnl8N/bKwhu3Vtt01srXz5Wi5f+1rf88N62JUsc3UdkXDJONklNs9n9YV5J8us5/KymTYEKhi4XgycnOz61x4OAUqP7OoTWeiUyG6lVhDOSm55FhGWnp6XWq25JNear35UX/N8/gyE7B6/iJ2K7IqYVLJLfWFMZEzEqUW+IEuQnqWaVEmV5CFITsh45mYeu/JR8rTyjRa7vRsZ13U/WEcxSoZnXx955hibW0dzksOG50yksOprbXz0HLqu/FKLXI1Jc97ik+LwcXSVb+9Lpq4tsouvyoVkFRfP0tOcWnQ8No2nPX6dSE6T03NgYGey2/saQ8thvu5A4UCvNb92bFey60S2RTj9e7f0Ibt+6bu+jLXmXVZ9dFiLT5bVD7FVdrbdjkp2/VPd2l979vaVOxXZlT+VbDHun/oxL2ImnVYrYiR99FpyGnOypDEnaRCoSshYo0fWZIe2RQypodhlnrVqXDyLJLb8Q4/1PTaXk38if7Q+L/88V4zhl9aVrmS9bdnyefXlh57VesyeC83TEhvr0McOz8i6DH33RX3k6i1bVT/PIWfBwPVhYGey65/Utv6BmoOAeRWQQ7/2sC/ZFcWChIp4OpFlvkVm9Unv3HyLTPt3fbUudirZlh+SSXv5DIxIdlvktjXmZ/aY/UuQXfyH6FB3aFvxQJxEPCUv8lgJIePVDs+ujw1sivTxLBLVWr8S4SqDrpNS5onHya7qqrdav66teGtskhNJJVb1aTXv/hG7cqVxxSNdjXurOVofr/1WbpEhBq3ruXB9/MBnxrDDM7Iak6zHRb/mWnJpr4/QZM+yZ3MY2Jns+q8e49eL8dwyzrj/+rE5uZZua+ycZJd/yAZBpeWqZNjnKpHlGTLbIsPM5dpmBkYjuz1S25trnb19xy5NdiE6Ld9FvESenMA5IaRfiZXPu23ImMimxnnGtp7VioRhe+6uBMz9cOInm946mWMcHxhTPFqTPEhWvvo6mnPbnisfp6+81nE9o9vKh+Zp8YPbx+iTD/yvfclpbVrG5KdiJhbJelxVTzJpQ5qCgbEwsDPZBQD+RyVe8YpX3PxZYP1RCVr+TDDjKqrIHwqctWS3kk1RK43z3PtkVyQVgqtL/+CNZxFhzWFXpJgxfpuDyK7/loiqJ/2028jASGR3DZldI3Pomb0E2aXmiChCeJy81Xg0J2LEvMhsiwS1xmRzjqSxhkiaZJ24acxbyJhi0Lh81XOvdTKHHLryw+1q3G15jNUOcp4r16Pf8rvKsCY2fJw1RXC1vueMH0rcbxFYZGUHm7LBmPuJPutKvsaFrNtH321pjbRjkZ/s5+3az73ILiDxrzOoaLbaQ7++IED2yK7oEqRUBFOkVXM9sgv55esG0qlfRxBRxQY38rpCdpWJ625HIrucGcgst85Pq10j09JbO3bqv6AGQYG44I8IjT6tlY9z45qndWIksuvz6kOAqn3NVbKlcewxp2da/HYy53P0Wz44Wavy9dlJp9YXwaukrur6s3RqXZ/LAeM1VrenPnmsNjVHK8IrmZbPxKV52kpOfU+xqTXRU1y+JvJuDzmfT/92EaPs93j7vTfZBQwPP/LIxF9R8yKhPuPMHws0S2RXhBTCyiXiKgomkirCKjmNi/BKfm0re95iW+v7OP1c28zAaGT3WOfuEDuf/eyj04MPPnjzJ4P5y2hLN38qGHn01qwrskvbIkRug7oEoRHpUZ1a21YyhW3WdH19cujrtvroVTJVyVsllKzTs4+8+yJ9/IbcyY+18UsPm9KldRJZfUbW13K99McjD9nT7Ok1YeAgsqtA+eoCX1Xgd3jS6isNmj9Gu0R2IZIisC061ZpH3n8LA5/oVnI696y1mM/XGFoZv66xkN3TFG6IK5/w8pWGpRu5tUT3GDUlNk6z58lr8hoMBANbw8BRyO45gloiu9dFreLt1jIQspvifI46ljWCs2AgGAgGzo+BkN2tsa74c5EMhOyev/ik4CfnwUAwEAwEA+fAQMjuRahVFt1aBkJ2U3DPUXCzRnAWDAQDwcD5MRCyuzXWFX8ukoGQ3fMXnxT85DwYCAaCgWDgHBgI2b0ItcqiW8tAyG4K7jkKbtYIzoKBYCAYOD8GrobsPvPTn04Qkl/96ldb40nx58ozAKbAFhhLETp/EUrOk/NgIBgIBoKBU2LgasguSfjfH/xgeuqpp0J4r5xcbsl9iC6YAlunPGixnUIeDAQDwUAwEAxcBgNXRXYBCaSET+FyJwfHwkCI7mWKT4p+8h4MBAPBQDBwDgxcHdklKfzvZn7vbu7k4FAM5KsLKbTnKLRZIzgLBoKBYOByGLhKshvAXA4wyX1yHwwEA8FAMBAMBAPXhIGQ3Z8HsNcE2PgavAYDwUAwEAwEA8HALhgI2Q3ZzT/MCgaCgWAgGAgGgoFgYFgMPPDY17855U4OgoFgIBgIBoKBYCAYCAZGxMADX/va16bcyUEwEAwEA8FAMBAMBAPBwIgYuCG79+7dm3InB6Nh4FOf+lRwnbMdDNxiDIxYA0aLKfFsn3uMsEchu7f4RTAaua3xjHBAa0x53v6LIXu0nT0asQaMFlPi2c55matdI+xRyG7I7rCffI1wQOeKT8a3/4LIHl1+j0asAaPFlHguf06WatUIexSyG7IbshsMDIuBpSKe+e2/aA/ZoxFe0jX+0WJKPNs/gyPsUchuiM6wRGeEA1pfdHne/oshe7SdPRqxBowWU+LZznmZq10j7FHIbshuyG4wMCwG5op3xrf/gj3GHo3wkq55GC2mxLP9szjCHu1Edl/3utdNd+/e3enF+IUvfGG6c+fOzf3UU09N3DzT1kOc5+2D/pr2aM0B/chHPjJx17iC0WCxYiLP14eJNTXg2vZ1tJgSz70JbgVX2geLcLLWO2wfW3M6I+zRarLLZoi0zrXf/OY3bzbrk5/85Auy6HkCmTv1xvh66V/fC+pYe7bmgIJlx+scthnf9Qe9Y8URO7cXw9n7w/a+VwP8gxg/9/uSjnPt1a4xHfq+JTd6t58ixl3jwZ9j+KG6f+wP3nrxzPl9zWSX81J5nuLknUme9XzJdhXZBVy9AkCgrQPVSoIXldrvrXHJJGXtw144l8rfUtGhgM8dUrB57CJ4qTxk3evEb/bt8H3r1YDW+0n/53HLP9juGhO1rPV+buELuSqL/iXJ7lyNbvm/hbHe/sz5R4z78p9Lf7LbOkeKs5LdlmxrTPrHbLtkFyeWgN47SDUIDlGL5XOQsBNycXhxPyY4rt3WUtHhIILRVpzBY7DYwkXGrgsXvRpQ30++t5CP1rvKZS7V3zUmvV/X+Buyezi+e/sztwe7kF32yH8Yc7ILZn1ubr1dx3sx9c4Rvvg5asm2xnb1b438LNnFQf+Jir4/4yCEgLYuRIDM1dv1nfgy7gmp9vJ8+AG8jTnsHVB9giP8gr+KV38+RQG5jXuSmHOWz4mBXg3ovWSpB/XM1/faKT/t7OVo15gq2eV9q9rm72SNqdU7mWfZ0NwxY981HuUG332PVNPlm/z2eBUTNhST7B2rnYtH6ymHa1vfI3xUXPKXHMCneFYO9F6TzKHtXEzY7Z0jfFPO6/nhuTWGTekRl/LE2CFxzJLdllFfuG5AS54g5+Sc7LZ0M5aX4qEY6B1QHTIVBbCqglHXZe7Qg1Zt5jn4DgZOj4FeDei9pEVMtEe8x7w+aJ5WMudqd43J46Svmoe/1DWPi74/IyOyofioh4zp+dB213h8PSd+xIJvmpff+j/GlQhqDyV/rLYXT2uN6ldLRmO+lxqre3js/WGdXkwtn9w335OWbGuMmNg/5mSrnkGNr213IrsVPEuL4Bw6TnjpEwAHiiQQFPeSrcyf/sUwWo7nDihFDhwKi8StAiGM1zYYDf5GOx+3IZ65GkDsrZescuJEaE6uRQylf8p2l5iWiBSxeW1rxUQtRE4xySatxg5pl+Lp1WJxCNV096P6zZzk6fseu96h/V48Ldvyw/ehJceYv7Mkg17rBxRilcyhbS8msFH3yJ/dj9ZZao21YlKe9o1lkeziqDve6+OMHFEC2BwdII0hwxi2dXBcVzbShmAcgoG5AyrceeFgrBYMrc3cmkIk+bTBbTCwDQzM1QD2p/WS1b7xPqI+8DxXG9C/RF1Yiqm+o+u7Ve9hySlOYtW7WnmgRa7aaI25zi79pXjcv5Zd5lv+tMZ8z4kJmZbNQ8Z68bTsgiEwhi+9HyDcd7fTIoZr7LmNpX4vpjm/sKnYZL8l2xqreuiLK/ZypHVa7SzZZTGST9IAEw61DGisAgsdbAio9D0AkV306UtO9tJu42VxzfvQO6DE5bhWcQDHrRvsXnMu4nvO023EQK8GtF6yyhH1QGeefusHYfQlI71ztPvGhG/46+/amoNrJLvERM2uJKhyEuL3PdsC2XUf5nAmTLXi0Z628Il8a1z2dmn3xRx7Q1xaq+KN8dZY1UNOZFe2dm1nya4bclLg4973jVCh8CB8U9FjE5QEBYG820w/L+hDMNA7oNh1XPcKjfB8iC/RDZaDgfNjoFcD/P3ke6P3Ee8sxufkWsTQ7Zyqv09M8oX3tJNCapuT31ZM/m53O8qPxvZtD4mHvYEYqXUf8JtxH/P4KidxuUP6vXjcrnDmPrIX4kUuiwy++5j6xN+aww45kNwhbS8mfHMM+TqVtLZkW2OtmFpyvtZS/yRkF0fZSHeubiKb45tKH70lhzN//hfGtea8d0CJCUyCUfoqDBSH1h1sBnfXeg5us9+9GuDvJ+VIBEh1QePUCicUkhNxRN6JBfVCNaNFamR3n3bXmHwNfFRs8suJSus9jE4ltq0xX2eX/r7xyH/tgddz1sdHbvlS90zPmmd/tWfSF0fR/mot6bTaXjyS19raC43T4rNjzedafXzeRb5lY2msFxMxOIbcFr4ph4wrbpdpjaFXMcaz54s1ZVs2aLFNPqpPq8kuCy3dWkiB9JKAM3JU8mlDKI6Jgd4BZR0vjmBxrmAw50XwmD7GVjAfDJwOA70awPup9U6b2w/qhcs78ZEt6VIvVDNEyvxFLbl92qWY6kve15CfxKH65/LylXm9n+nXd3trzNfZpb8UD2vVW+TGa7bG5Cs6Hm/1WfLyFVvaM8aQVw5kx/dcerXtxYOscNSzJRnFUtfwZ3z2PPjcsfq9mMiNY8jXxDflUOOKzXNdx6Sncd8LtyPb2kvli3xUn1aTXQLSIq22AgmZVhLceTnWspex070AbktueweUHIBFFTHwu+buFajbktfEmbN5LRhYqgHXEof7OVpMp4qnxUk8j6fqz8Wjd40I2tL6/oNHla3vqlO/l+Ziqn4d61lk91j2sLOK7B5zwdjKi/JcGDj3AT1XXFknZygYWIeBEWvAaDGdKp6tkd1rPrOn2qO5nITs3ltX4OYSmPHblb9zH9Dg63bhK/u9/f0esQaMFtOp4gnZPd75PNUezdXQkN2Q3e5XSeaAc1vHz31Ab2ueE/fxXirJ5XFzOWINGC2mxHNczJ+ihoywR/kaQwj0sAR6hAN6isIVm9t/uWSPjrNHI9aA0WJKPMfB+ilrxgh7FLIbshuyGwwMi4FTvgBiOy/pS2BgBOLheUs8OUeOh1P1Q3ZDdIYlOqMV0VMVgdjd/ssme7TfHo1YA0aLKfHsh+1z1oQR9uiG7BJI7uQgGAgGgoFgIBgIBoKBYGA0DNyQ3SlXMpAMJAPJQDKQDCQDyUAyMGAGQnYH3NSE9LsM8JNprmQgGbi9GRixBowWU+LZ/vkcYY9CdrePs3i4ZwZGOKB7hh61ZCAZmKabr+eNlojR6lri2T5CR9ijkN3t4ywe7pmBEQ7onqFHLRlIBkJ2rwIDo9Xp0eIBRCPEFLJ7FeUgTu6TgREO6D5xRycZSAZ+l4ERa8BoMSWe7Z/WEfYoZHf7OIuHe2ZghAO6Z+hRSwaSgUE+kaobOVpdSzx1h7f3PMIehexuD1fx6EgZGOGAHikVMZMM3MoMjFgDRosp8Wz/aI6wRyG728dZPNwzAyMc0D1Dj1oykAzkk92rwMA+dfr1r3/9dOfOnenpp5+ejfHd73739Pjjj8/OM/HpT3/6xg62lux1DdnkPvGY+ia7l4rpt7/97fTcc88dJSebIbsCXQ+8yADgNRcgB7xbv9bEvfUYtupf74CuwZIwpEJI+/GPf3yncJGXPgV6lwu9pWLNeZB9tX6G6rzP7eJLlcWO1lvjZ9X3Z3xcOtdaz/3XmPz48pe/7GZvXoSao63zLxJuPPTsCxsNtReGfG3vz2GolYfqQw8PLX05s7T+3Lzqk897HpUHn6/x+RnAnyWb8vkY7aE14Bg+HNtGLyZfS9ih3fK1Nh5iUExgChyCu7kzIWwKr45R9StWj5GrXeI5x77ovGkt5UU58Fa5kqzaS8T0ox/9aHrzm988PfbYY3LjoHYzZLdGIVA7+NYQFNnRhuo57e3LQO+ArsESB3+JhPWyyhpOcHtkpGWHIjRXyCWP/TkZxr140cemnynZ2bXFjmzrrO1jVz4t5blVD1o+eC6W5pdi7ukr5iUbdR6brTzN5aHlwy76ypvnxX1amocMgOO5C797e9fK05LNubX2GT+0Buyz5ql1ejH52uxbJXM+v5X+2niIhfPgWBZ+5+Js4U9xg1vVMI0do10bzzHWWrKh/JC33kWe/F1VZc8dE5/mfvjDH54+9rGPTb/5zW+qO3s9h+zulbYoXUMGegd0Ddk99GUxV5gpQGuuqt/SQWatPfQpaIcWePRrYeTF0SNFLd/lz5q9UNFWrC0dXnh66S3Nz/mj8SX93ktUNmqLTflX58hnXXOXPLf0WWPphX7ofC8m1p+L4VAM1vzNPR9aA+bsXnK8F5P7BSacGPrclvpL8YAx6tzc2SEW5pZkasxL2K/ya5+X4llr5xhy5EX569lbysW5Y/rqV786veUtb5meffbZnts7zZ2V7AJG3WwAh1FFz18e2hzJ0nIxzqbo0gtQcn4YZK/KrD38rCO7+OmXDpbmfa76rpczMpKnla/y021oTPIeM3I8KxeS4TnXizPQO6DKH/hTDmn9Qkb75OPer/rCl/bQZen7C6his66FP9hBRz7WfWbcMVbXq89+5jTnWK/2WnPEXM+EMCmbtO438/UiXuLBXp2vuVGeFWtrPbezNI8vdQ3P7ZK+9rfa0P7XWHmuuZXMXB7W5nlOX75pndouzSNPHvBj7uqdEfwSbml5XmNzbq19xtfUANnFx7p/9bxo3xUX+dGlfGpOreKW3KFtLybZxs96RjW3tXYuHuWa/M3lVjmmRR480vezTLzsk8v2+ofmZy6eQ+3uqq96qNzN6a/ByjljguC+9a1vPdrXFxT32cguB88PPX0Ap0IqYMsxbRCtLgDsxUWHQPMte37gWQsZtyldb7HrvvrBYdx9YE5rYF997PGstRhXrMzJZo275SPr+Zr0iQNdLtnQWjeD+U/3F2GTf3Lo+0zf949nZHS7LOnVXinVvg/MuS3JsHfCAfZ8z1hHc8hrXcnQuoyeJUcrWa3nreRdpmKL9TXfm3M8K25fi3lhnHFsef48P/SZ1yU/PRfY8/h8fenhB+NcS/NaAx1dntslfcWs9bCBv+6j7NKSC49Rc708ION+aE3p0vb0mWNNYR3fuHUtzSPH+tKjRcevNWfEc7TGpts/tN97Sdc9IT7Hg3xVzLTI6HwwT35b+8qc5A+Noer3YpIs++LnT+NbbNfEs6vfjvm5PLBv2ttd7ffkTxFPb73WnOobrfotOcZUI+bmGT9nTJ///OenD3zgA0f7h2mK6yxkF0DVgocDXjxrIdcG0eqqxUnjav2Ay57rI7dmY+dk5JPWU6si2fNPMtJRKz/17C83jWldxYJ/ThyQa+lJ/7a2vQPKXs1hsr7wlD/20POOfpUVduYwz/xcgXX8sqafD/nQwxhz6Agn0lHLHDK6KvY0Ttubkxz2dPuaxEecfrm9iucqTx48z+6P1mnhnTW0p0vzNdes4bld0lc88kexav/1rBZ76Pi1lAfJKse0vt6SPnlFx3NJXzlamtf6ahUzenNXXQ9ZrdfSWWOzpbd2bKkGOE7xve6R48D7Wr/ugcZpW/Z8ft9+LybZZG3Hisa32K6JZ1+/584j9pjrYXnfNU8Zz1qfHKvCaEu3N+fy54qJT3Xf9ra3Td/61rd8+aP0z0J2eYl4wZXnviEqeprTJviB9ZeR5LDLwdatdao9l5eMxmorXWz65eNaTy1zXPVZ+vjOnBdX5mRTcsh4zBonV1qjdYBbY9K9rW3vgLawRJ4ckzVvrb3SfnuL7bmXfC2wc/hlbWxqz+XLnF3Nt3Cgs4RffvE8dxZ6c8qD4xRf9eJA1/PhfdavOUYPv3XVHDGuGLRmtYEMfjHOtTTPGu6X+vJjSV85uFnM/kM+a07dLxO9z8eaB62hmNHFT+W5+lj1eVY+tK7ncWleOt6yt8qRj6svn/XcWkNzapdsSm6fdpcaQG7x3y/PMfO+F5JDpuqRo4oDyR/a9mLCdu/sHrr2KfR78cydU53XuVZ+ok8+uIT9OZ0ermVvTduLZ43+oTK1Binult21WDlFTM8888z0uc99bvrlL3/5gmt8qvvBD37waP8o7QXD0zRdNdkFtF5QfJNr0VXQyAj8GptrkWMNHQJs1pdHS1dro1svHV75IFnJobNUUP0AS681prnb2vYOKPnXvnp+Wi8uzdeiMbdXyNd9lQ23j/4cfpFnHjt+VULjc/QrvpGf85Mc+PpuqzdH3rDrF37qbPR05Q8+tW5y3LKv3OtstIIz06AAAAZ3SURBVPDuuVkzX2PweJb05/a35h+brbF986A8r9FHRnvisQlXS/Ouoz465Gbu0j5pfm4NzdMu2XTZXfu71ADlxdcgf/jHxbzwV2X8nCKP7KmuXkys6TXmVD4c0+5SPL6W8NXaB5dT389xT3fufSA7u7S7xLOL3TWyihH8tW5hWbbWYuUUMUFy7969Oz300EM3X1ng+V3vetdJPtUl3rOQXRJci642RcmvLw/N0+pyQKroa44WYOvlLXuuj4wXL9ed68sP7Klfbc7pshY+18uLofyUTMu/uq4fYOm1xjR3W9veAWVf5jA5t78Vc6298lxTbNDRpX3kudpizPHLM/o6H7IBvoVxjXmLDelUbLkcfeRqDiTTm/M1JO/x9HQl7y3y2NTVihEZ8qG98VrgejpvS/OtNWSHdklfuZU/0m1hgjHkl66ah6U8V3tV3/EmWY3Rqq85Wo3Rti7y0sOf4wB9fJrDmOwv2ZTcPu1SDXDctfbOz2BrvpWveu738bun04up5r9nZytzvXiqj+yBYxPscM9d7K/mW3slPWQcCxrfp90lnn3s76qjuKve3HiV4/lUMfG7dN/whjdMn/nMZ6ZvfOMb03vf+97p17/+dcuFg8fOQnbxkgIg0PEMsLyQ6OXhEdWi4YCUvICvl6EKseYdwOgvFV7Wlw36AoTWwV61IXnsSw5dL46SYdxfAPKTcS7F4XZY0/V59lyi1xr7ncXb+9/eASV/LUzWPHv2qrxs+F65Pn32RZfvkfZdutp312c9bl0tHfR0yR89Y6viRHNqwaiviT35NDcnX2WDFllfC7/dLjZ93nWx53lSnLS6lAv5RsuYZKQj+aV5yXv+6MveWn33m/jIg1+y42Nz/ZoHnn3/0at5dltVnzn2wH3k2felN4/vLqucKUfYd9s846/vMz55TpZsKl9aA1ueA2y5Tx5/q79UA9x/7LqvPLM2MXBpP/BRF/ruT32WHK3vXc1lXdv1ar8XE3Y8/1V3i8+9eNxfYvPcM8cz8fo+ug7jmheWqg3kJeO6+/bXxrOv/V31iNfPkPRb9UJztT1lTE888cT0xje+8eYPSHzpS1+qSx/t+WxkVwkn6dwcdg6/ipoOv0cGuCXPeAWkz9PXjazsqUC5HV+j1eeASF6+ulydVzHUYZIuz7o0plbj8lPPtNVn4vJLB3hpzOdvY793QIUlxxB59Wtun12m7nlrr7Tndc7Xpq9b9tGrWNB5QUbYkX1/UTNf/ZdcjRM9zVUbc3PVL8e6+y+7tK2XDLLYqj5V+6ofbqPG73Ot/CzN19h79jVX/VTsapmvdjVX2zV5aOVZdlr6zDkOap6X5n3/WnvotpnHB79a8fdsap/JL5fOl2ySy3qONNdq19QA13O8y3ePib77777UOckp59jW/gk/ihM7a3HSi4k1K849vi32e/HI37ncKqfksZU/4ZP8Clval9pqn7Tmvu2aePa1vY+e4q665MTxW+f9+ZQxPf/889PDDz88vfa1r51++MMf+rJH7Z+N7La8vsaD2YojY9vMwCkP6DYjjlfJQDLgGRixBszFBCE8FmHzHJ66PxeP1uUHhDWkDDn9MIGuSJ7If32WfVr0jpW7pXh83WvpjxDT0cguYKk/KfE8ByDG5+bOAQDWbvnrh+UcfmSN02VghAN6uuzEcjIwfgZGrAFzMfHJJoT32q65eK4tDvk7WjzENUJMRyO72ui5thLLNT+pzdnKeDKwJgMjHNA1cUYmGUgG2hkYsQaMFlPiaWN3S6Mj7NHZyO6WNi6+3I4MjHBAb8dOJcpk4DQZGLEGjBZT4jkN9o9pdYQ9Ctk9JiJia1MZGOGAbiqhcSYZuLIMjFgDRosp8Wz/UI2wRyG728dZPNwzAyMc0D1Dj1oykAwM8l3DupGj1bXEU3d4e88j7FHI7vZwFY+OlIERDuiRUhEzycCtzMCINWC0mBLP9o/mCHt0Q3Z/du+3U+7kYDQMcEBHiynx5JwGA+sxMGINGC2mxLMez5c6+yPsUchuiP6whHCEA3qp4pZ1t/8Cyh4t79GINWC0mBLPMo4vfdZH2KOQ3ZDdkN1gYFgMXPolkfUv+yIf4SVdMTRaTInnsmek4qv1PMIeheyG6AxLdEY4oK3Ck7HtvxyyR9vYoxFrwGgxJZ5tnJVezRphj0J2Q3ZDdoOBYTHQK+CZ2/5L9tA9GuElXXMwWkyJZ/vncIQ9+n9k+grTIWFTnQAAAABJRU5ErkJggg==&quot; width=&quot;699&quot; height=&quot;97&quot;&gt;&lt;br&gt;" style="text;html=1;align=left;verticalAlign=middle;resizable=0;points=[];autosize=1;strokeColor=none;" vertex="1" parent="1">
          <mxGeometry x="70" y="65" width="1780" height="260" as="geometry" />
        </mxCell>
      </root>
    </mxGraphModel>
  </diagram>
</mxfile>
